<?xml version="1.0" encoding="utf-8"?>
<!-- Generator: Adobe Illustrator 22.1.0, SVG Export Plug-In . SVG Version: 6.00 Build 0)  -->
<svg version="1.1" id="Capa_1" xmlns="http://www.w3.org/2000/svg" xmlns:xlink="http://www.w3.org/1999/xlink" x="0px" y="0px"
	 viewBox="0 0 572 512" style="enable-background:new 0 0 572 512;" xml:space="preserve">
<g>
	<g>
		<path d="M406,30c-27.8,0-53.3,8.8-75.7,26.2C308.8,72.8,294.4,94,286,109.5c-8.4-15.4-22.8-36.6-44.3-53.3
			C219.3,38.8,193.8,30,166,30C88.5,30,30,93.4,30,177.5c0,90.9,72.9,153,183.4,247.1c18.8,16,40,34.1,62.1,53.4
			c2.9,2.5,6.7,4,10.5,4s7.6-1.4,10.5-4c22.1-19.3,43.3-37.4,62.1-53.4C469.1,330.6,542,268.4,542,177.5C542,93.4,483.5,30,406,30z"
			/>
	</g>
</g>
</svg>
