<?xml version="1.0" encoding="UTF-8"?><!DOCTYPE svg PUBLIC "-//W3C//DTD SVG 1.1//EN" "http://www.w3.org/Graphics/SVG/1.1/DTD/svg11.dtd"><svg xmlns="http://www.w3.org/2000/svg" xmlns:xlink="http://www.w3.org/1999/xlink"><symbol id="icon-caret" viewBox="0 0 451.847 451.847">
<g>
	<path d="M225.923,354.706c-8.098,0-16.195-3.092-22.369-9.263L9.27,151.157c-12.359-12.359-12.359-32.397,0-44.751
		c12.354-12.354,32.388-12.354,44.748,0l171.905,171.915l171.906-171.909c12.359-12.354,32.391-12.354,44.744,0
		c12.365,12.354,12.365,32.392,0,44.751L248.292,345.449C242.115,351.621,234.018,354.706,225.923,354.706z"/>
</g>
<g>
</g>
<g>
</g>
<g>
</g>
<g>
</g>
<g>
</g>
<g>
</g>
<g>
</g>
<g>
</g>
<g>
</g>
<g>
</g>
<g>
</g>
<g>
</g>
<g>
</g>
<g>
</g>
<g>
</g>
</symbol><symbol id="icon-chat" viewBox="0 0 442.76 442.76">
<g>
	<path d="M237.08,31.616c-113.594,0-205.679,84.96-205.679,189.764c0,28.473,6.809,55.473,18.986,79.711L1.735,389.063
		c-2.704,4.887-2.215,10.916,1.239,15.307c2.672,3.396,6.722,5.299,10.911,5.299c1.223,0,2.457-0.162,3.674-0.498l106.505-29.232
		c32.434,19.719,71.269,31.205,113.016,31.205c113.595,0,205.681-84.959,205.681-189.764
		C442.76,116.576,350.674,31.616,237.08,31.616z M217.881,145.28c0-10.201,8.298-18.5,18.5-18.5s18.5,8.299,18.5,18.5v101
		c0,10.201-8.299,18.5-18.5,18.5s-18.5-8.299-18.5-18.5V145.28z M236.38,315.98c-11.225,0-20.356-9.132-20.356-20.356
		c0-11.227,9.133-20.359,20.356-20.359c11.227,0,20.357,9.133,20.357,20.359C256.738,306.849,247.607,315.98,236.38,315.98z"/>
</g>
<g>
</g>
<g>
</g>
<g>
</g>
<g>
</g>
<g>
</g>
<g>
</g>
<g>
</g>
<g>
</g>
<g>
</g>
<g>
</g>
<g>
</g>
<g>
</g>
<g>
</g>
<g>
</g>
<g>
</g>
</symbol><symbol id="icon-close" viewBox="0 0 329.26933 329"><path d="m194.800781 164.769531 128.210938-128.214843c8.34375-8.339844 8.34375-21.824219 0-30.164063-8.339844-8.339844-21.824219-8.339844-30.164063 0l-128.214844 128.214844-128.210937-128.214844c-8.34375-8.339844-21.824219-8.339844-30.164063 0-8.34375 8.339844-8.34375 21.824219 0 30.164063l128.210938 128.214843-128.210938 128.214844c-8.34375 8.339844-8.34375 21.824219 0 30.164063 4.15625 4.160156 9.621094 6.25 15.082032 6.25 5.460937 0 10.921875-2.089844 15.082031-6.25l128.210937-128.214844 128.214844 128.214844c4.160156 4.160156 9.621094 6.25 15.082032 6.25 5.460937 0 10.921874-2.089844 15.082031-6.25 8.34375-8.339844 8.34375-21.824219 0-30.164063zm0 0"/></symbol><symbol id="icon-dislike" viewBox="0 0 512 512">
<g>
	<g>
		<path d="M117.333,10.667h-64C23.936,10.667,0,34.603,0,64v170.667C0,264.064,23.936,288,53.333,288h96V21.461
			C140.395,14.72,129.344,10.667,117.333,10.667z"/>
	</g>
</g>
<g>
	<g>
		<path d="M512,208c0-18.496-10.581-34.731-26.347-42.667c3.285-6.549,5.013-13.803,5.013-21.333
			c0-18.517-10.603-34.752-26.368-42.688c4.885-9.728,6.315-20.928,3.861-32.043C463.381,47.659,443.051,32,419.819,32H224
			c-13.995,0-35.968,4.416-53.333,12.608v228.651l2.56,1.301l61.44,133.12V480c0,3.243,1.472,6.315,3.989,8.341
			c0.683,0.512,16.512,12.992,38.677,12.992c24.683,0,64-39.061,64-85.333c0-29.184-10.453-65.515-16.981-85.333h131.776
			c28.715,0,53.141-21.248,55.637-48.363c1.387-15.211-3.691-29.824-13.653-40.725C506.923,232.768,512,220.821,512,208z"/>
	</g>
</g>
<g>
</g>
<g>
</g>
<g>
</g>
<g>
</g>
<g>
</g>
<g>
</g>
<g>
</g>
<g>
</g>
<g>
</g>
<g>
</g>
<g>
</g>
<g>
</g>
<g>
</g>
<g>
</g>
<g>
</g>
</symbol><symbol id="icon-heart" viewBox="0 0 572 512">
<g>
	<g>
		<path d="M406,30c-27.8,0-53.3,8.8-75.7,26.2C308.8,72.8,294.4,94,286,109.5c-8.4-15.4-22.8-36.6-44.3-53.3
			C219.3,38.8,193.8,30,166,30C88.5,30,30,93.4,30,177.5c0,90.9,72.9,153,183.4,247.1c18.8,16,40,34.1,62.1,53.4
			c2.9,2.5,6.7,4,10.5,4s7.6-1.4,10.5-4c22.1-19.3,43.3-37.4,62.1-53.4C469.1,330.6,542,268.4,542,177.5C542,93.4,483.5,30,406,30z"/>
	</g>
</g>
</symbol><symbol id="icon-like" viewBox="0 0 512 512">
<g>
	<g>
		<path d="M53.333,224C23.936,224,0,247.936,0,277.333V448c0,29.397,23.936,53.333,53.333,53.333h64
			c12.011,0,23.061-4.053,32-10.795V224H53.333z"/>
	</g>
</g>
<g>
	<g>
		<path d="M512,304c0-12.821-5.077-24.768-13.888-33.579c9.963-10.901,15.04-25.515,13.653-40.725
			c-2.496-27.115-26.923-48.363-55.637-48.363H324.352c6.528-19.819,16.981-56.149,16.981-85.333c0-46.272-39.317-85.333-64-85.333
			c-22.165,0-37.995,12.48-38.677,12.992c-2.517,2.027-3.989,5.099-3.989,8.341v72.341l-61.44,133.099l-2.56,1.301v228.651
			C188.032,475.584,210.005,480,224,480h195.819c23.232,0,43.563-15.659,48.341-37.269c2.453-11.115,1.024-22.315-3.861-32.043
			c15.765-7.936,26.368-24.171,26.368-42.688c0-7.552-1.728-14.784-5.013-21.333C501.419,338.731,512,322.496,512,304z"/>
	</g>
</g>
<g>
</g>
<g>
</g>
<g>
</g>
<g>
</g>
<g>
</g>
<g>
</g>
<g>
</g>
<g>
</g>
<g>
</g>
<g>
</g>
<g>
</g>
<g>
</g>
<g>
</g>
<g>
</g>
<g>
</g>
</symbol><symbol id="icon-play" viewBox="0 0 320.001 320.001">
<path d="M295.84,146.049l-256-144c-4.96-2.784-11.008-2.72-15.904,0.128C19.008,5.057,16,10.305,16,16.001v288
	c0,5.696,3.008,10.944,7.936,13.824c2.496,1.44,5.28,2.176,8.064,2.176c2.688,0,5.408-0.672,7.84-2.048l256-144
	c5.024-2.848,8.16-8.16,8.16-13.952S300.864,148.897,295.84,146.049z"/>
<g>
</g>
<g>
</g>
<g>
</g>
<g>
</g>
<g>
</g>
<g>
</g>
<g>
</g>
<g>
</g>
<g>
</g>
<g>
</g>
<g>
</g>
<g>
</g>
<g>
</g>
<g>
</g>
<g>
</g>
</symbol><symbol id="sprite"><symbol id="icon-caret" viewBox="0 0 451.847 451.847">
<g>
	<path d="M225.923,354.706c-8.098,0-16.195-3.092-22.369-9.263L9.27,151.157c-12.359-12.359-12.359-32.397,0-44.751
		c12.354-12.354,32.388-12.354,44.748,0l171.905,171.915l171.906-171.909c12.359-12.354,32.391-12.354,44.744,0
		c12.365,12.354,12.365,32.392,0,44.751L248.292,345.449C242.115,351.621,234.018,354.706,225.923,354.706z"/>
</g>
<g>
</g>
<g>
</g>
<g>
</g>
<g>
</g>
<g>
</g>
<g>
</g>
<g>
</g>
<g>
</g>
<g>
</g>
<g>
</g>
<g>
</g>
<g>
</g>
<g>
</g>
<g>
</g>
<g>
</g>
</symbol><symbol id="icon-chat" viewBox="0 0 442.76 442.76">
<g>
	<path d="M237.08,31.616c-113.594,0-205.679,84.96-205.679,189.764c0,28.473,6.809,55.473,18.986,79.711L1.735,389.063
		c-2.704,4.887-2.215,10.916,1.239,15.307c2.672,3.396,6.722,5.299,10.911,5.299c1.223,0,2.457-0.162,3.674-0.498l106.505-29.232
		c32.434,19.719,71.269,31.205,113.016,31.205c113.595,0,205.681-84.959,205.681-189.764
		C442.76,116.576,350.674,31.616,237.08,31.616z M217.881,145.28c0-10.201,8.298-18.5,18.5-18.5s18.5,8.299,18.5,18.5v101
		c0,10.201-8.299,18.5-18.5,18.5s-18.5-8.299-18.5-18.5V145.28z M236.38,315.98c-11.225,0-20.356-9.132-20.356-20.356
		c0-11.227,9.133-20.359,20.356-20.359c11.227,0,20.357,9.133,20.357,20.359C256.738,306.849,247.607,315.98,236.38,315.98z"/>
</g>
<g>
</g>
<g>
</g>
<g>
</g>
<g>
</g>
<g>
</g>
<g>
</g>
<g>
</g>
<g>
</g>
<g>
</g>
<g>
</g>
<g>
</g>
<g>
</g>
<g>
</g>
<g>
</g>
<g>
</g>
</symbol><symbol id="icon-close" viewBox="0 0 329.26933 329"><path d="m194.800781 164.769531 128.210938-128.214843c8.34375-8.339844 8.34375-21.824219 0-30.164063-8.339844-8.339844-21.824219-8.339844-30.164063 0l-128.214844 128.214844-128.210937-128.214844c-8.34375-8.339844-21.824219-8.339844-30.164063 0-8.34375 8.339844-8.34375 21.824219 0 30.164063l128.210938 128.214843-128.210938 128.214844c-8.34375 8.339844-8.34375 21.824219 0 30.164063 4.15625 4.160156 9.621094 6.25 15.082032 6.25 5.460937 0 10.921875-2.089844 15.082031-6.25l128.210937-128.214844 128.214844 128.214844c4.160156 4.160156 9.621094 6.25 15.082032 6.25 5.460937 0 10.921874-2.089844 15.082031-6.25 8.34375-8.339844 8.34375-21.824219 0-30.164063zm0 0"/></symbol><symbol id="icon-dislike" viewBox="0 0 512 512">
<g>
	<g>
		<path d="M117.333,10.667h-64C23.936,10.667,0,34.603,0,64v170.667C0,264.064,23.936,288,53.333,288h96V21.461
			C140.395,14.72,129.344,10.667,117.333,10.667z"/>
	</g>
</g>
<g>
	<g>
		<path d="M512,208c0-18.496-10.581-34.731-26.347-42.667c3.285-6.549,5.013-13.803,5.013-21.333
			c0-18.517-10.603-34.752-26.368-42.688c4.885-9.728,6.315-20.928,3.861-32.043C463.381,47.659,443.051,32,419.819,32H224
			c-13.995,0-35.968,4.416-53.333,12.608v228.651l2.56,1.301l61.44,133.12V480c0,3.243,1.472,6.315,3.989,8.341
			c0.683,0.512,16.512,12.992,38.677,12.992c24.683,0,64-39.061,64-85.333c0-29.184-10.453-65.515-16.981-85.333h131.776
			c28.715,0,53.141-21.248,55.637-48.363c1.387-15.211-3.691-29.824-13.653-40.725C506.923,232.768,512,220.821,512,208z"/>
	</g>
</g>
<g>
</g>
<g>
</g>
<g>
</g>
<g>
</g>
<g>
</g>
<g>
</g>
<g>
</g>
<g>
</g>
<g>
</g>
<g>
</g>
<g>
</g>
<g>
</g>
<g>
</g>
<g>
</g>
<g>
</g>
</symbol><symbol id="icon-heart" viewBox="0 0 512 453.3">
<g>
	<g>
		<path d="M376,0.6c-27.8,0-53.3,8.8-75.7,26.2c-21.5,16.6-35.9,37.8-44.3,53.3c-8.4-15.4-22.8-36.6-44.3-53.3
			C189.3,9.4,163.8,0.6,136,0.6C58.5,0.6,0,64,0,148.1c0,90.9,72.9,153,183.4,247.1c18.8,16,40,34.1,62.1,53.4c2.9,2.5,6.7,4,10.5,4
			s7.6-1.4,10.5-4c22.1-19.3,43.3-37.4,62.1-53.4C439.1,301.2,512,239,512,148.1C512,64,453.5,0.6,376,0.6z"/>
	</g>
</g>
</symbol><symbol id="icon-like" viewBox="0 0 512 512">
<g>
	<g>
		<path d="M53.333,224C23.936,224,0,247.936,0,277.333V448c0,29.397,23.936,53.333,53.333,53.333h64
			c12.011,0,23.061-4.053,32-10.795V224H53.333z"/>
	</g>
</g>
<g>
	<g>
		<path d="M512,304c0-12.821-5.077-24.768-13.888-33.579c9.963-10.901,15.04-25.515,13.653-40.725
			c-2.496-27.115-26.923-48.363-55.637-48.363H324.352c6.528-19.819,16.981-56.149,16.981-85.333c0-46.272-39.317-85.333-64-85.333
			c-22.165,0-37.995,12.48-38.677,12.992c-2.517,2.027-3.989,5.099-3.989,8.341v72.341l-61.44,133.099l-2.56,1.301v228.651
			C188.032,475.584,210.005,480,224,480h195.819c23.232,0,43.563-15.659,48.341-37.269c2.453-11.115,1.024-22.315-3.861-32.043
			c15.765-7.936,26.368-24.171,26.368-42.688c0-7.552-1.728-14.784-5.013-21.333C501.419,338.731,512,322.496,512,304z"/>
	</g>
</g>
<g>
</g>
<g>
</g>
<g>
</g>
<g>
</g>
<g>
</g>
<g>
</g>
<g>
</g>
<g>
</g>
<g>
</g>
<g>
</g>
<g>
</g>
<g>
</g>
<g>
</g>
<g>
</g>
<g>
</g>
</symbol><symbol id="icon-play" viewBox="0 0 320.001 320.001">
<path d="M295.84,146.049l-256-144c-4.96-2.784-11.008-2.72-15.904,0.128C19.008,5.057,16,10.305,16,16.001v288
	c0,5.696,3.008,10.944,7.936,13.824c2.496,1.44,5.28,2.176,8.064,2.176c2.688,0,5.408-0.672,7.84-2.048l256-144
	c5.024-2.848,8.16-8.16,8.16-13.952S300.864,148.897,295.84,146.049z"/>
<g>
</g>
<g>
</g>
<g>
</g>
<g>
</g>
<g>
</g>
<g>
</g>
<g>
</g>
<g>
</g>
<g>
</g>
<g>
</g>
<g>
</g>
<g>
</g>
<g>
</g>
<g>
</g>
<g>
</g>
</symbol><symbol id="sprite"><symbol id="icon-caret" viewBox="0 0 451.847 451.847">
<g>
	<path d="M225.923,354.706c-8.098,0-16.195-3.092-22.369-9.263L9.27,151.157c-12.359-12.359-12.359-32.397,0-44.751
		c12.354-12.354,32.388-12.354,44.748,0l171.905,171.915l171.906-171.909c12.359-12.354,32.391-12.354,44.744,0
		c12.365,12.354,12.365,32.392,0,44.751L248.292,345.449C242.115,351.621,234.018,354.706,225.923,354.706z"/>
</g>
<g>
</g>
<g>
</g>
<g>
</g>
<g>
</g>
<g>
</g>
<g>
</g>
<g>
</g>
<g>
</g>
<g>
</g>
<g>
</g>
<g>
</g>
<g>
</g>
<g>
</g>
<g>
</g>
<g>
</g>
</symbol><symbol id="icon-chat" viewBox="0 0 442.76 442.76">
<g>
	<path d="M237.08,31.616c-113.594,0-205.679,84.96-205.679,189.764c0,28.473,6.809,55.473,18.986,79.711L1.735,389.063
		c-2.704,4.887-2.215,10.916,1.239,15.307c2.672,3.396,6.722,5.299,10.911,5.299c1.223,0,2.457-0.162,3.674-0.498l106.505-29.232
		c32.434,19.719,71.269,31.205,113.016,31.205c113.595,0,205.681-84.959,205.681-189.764
		C442.76,116.576,350.674,31.616,237.08,31.616z M217.881,145.28c0-10.201,8.298-18.5,18.5-18.5s18.5,8.299,18.5,18.5v101
		c0,10.201-8.299,18.5-18.5,18.5s-18.5-8.299-18.5-18.5V145.28z M236.38,315.98c-11.225,0-20.356-9.132-20.356-20.356
		c0-11.227,9.133-20.359,20.356-20.359c11.227,0,20.357,9.133,20.357,20.359C256.738,306.849,247.607,315.98,236.38,315.98z"/>
</g>
<g>
</g>
<g>
</g>
<g>
</g>
<g>
</g>
<g>
</g>
<g>
</g>
<g>
</g>
<g>
</g>
<g>
</g>
<g>
</g>
<g>
</g>
<g>
</g>
<g>
</g>
<g>
</g>
<g>
</g>
</symbol><symbol id="icon-close" viewBox="0 0 329.26933 329"><path d="m194.800781 164.769531 128.210938-128.214843c8.34375-8.339844 8.34375-21.824219 0-30.164063-8.339844-8.339844-21.824219-8.339844-30.164063 0l-128.214844 128.214844-128.210937-128.214844c-8.34375-8.339844-21.824219-8.339844-30.164063 0-8.34375 8.339844-8.34375 21.824219 0 30.164063l128.210938 128.214843-128.210938 128.214844c-8.34375 8.339844-8.34375 21.824219 0 30.164063 4.15625 4.160156 9.621094 6.25 15.082032 6.25 5.460937 0 10.921875-2.089844 15.082031-6.25l128.210937-128.214844 128.214844 128.214844c4.160156 4.160156 9.621094 6.25 15.082032 6.25 5.460937 0 10.921874-2.089844 15.082031-6.25 8.34375-8.339844 8.34375-21.824219 0-30.164063zm0 0"/></symbol><symbol id="icon-dislike" viewBox="0 0 512 512">
<g>
	<g>
		<path d="M117.333,10.667h-64C23.936,10.667,0,34.603,0,64v170.667C0,264.064,23.936,288,53.333,288h96V21.461
			C140.395,14.72,129.344,10.667,117.333,10.667z"/>
	</g>
</g>
<g>
	<g>
		<path d="M512,208c0-18.496-10.581-34.731-26.347-42.667c3.285-6.549,5.013-13.803,5.013-21.333
			c0-18.517-10.603-34.752-26.368-42.688c4.885-9.728,6.315-20.928,3.861-32.043C463.381,47.659,443.051,32,419.819,32H224
			c-13.995,0-35.968,4.416-53.333,12.608v228.651l2.56,1.301l61.44,133.12V480c0,3.243,1.472,6.315,3.989,8.341
			c0.683,0.512,16.512,12.992,38.677,12.992c24.683,0,64-39.061,64-85.333c0-29.184-10.453-65.515-16.981-85.333h131.776
			c28.715,0,53.141-21.248,55.637-48.363c1.387-15.211-3.691-29.824-13.653-40.725C506.923,232.768,512,220.821,512,208z"/>
	</g>
</g>
<g>
</g>
<g>
</g>
<g>
</g>
<g>
</g>
<g>
</g>
<g>
</g>
<g>
</g>
<g>
</g>
<g>
</g>
<g>
</g>
<g>
</g>
<g>
</g>
<g>
</g>
<g>
</g>
<g>
</g>
</symbol><symbol id="icon-heart" viewBox="0 0 512 512">
<g>
	<g>
		<path d="M376,30c-27.783,0-53.255,8.804-75.707,26.168c-21.525,16.647-35.856,37.85-44.293,53.268
			c-8.437-15.419-22.768-36.621-44.293-53.268C189.255,38.804,163.783,30,136,30C58.468,30,0,93.417,0,177.514
			c0,90.854,72.943,153.015,183.369,247.118c18.752,15.981,40.007,34.095,62.099,53.414C248.38,480.596,252.12,482,256,482
			s7.62-1.404,10.532-3.953c22.094-19.322,43.348-37.435,62.111-53.425C439.057,330.529,512,268.368,512,177.514
			C512,93.417,453.532,30,376,30z"/>
	</g>
</g>
<g>
</g>
<g>
</g>
<g>
</g>
<g>
</g>
<g>
</g>
<g>
</g>
<g>
</g>
<g>
</g>
<g>
</g>
<g>
</g>
<g>
</g>
<g>
</g>
<g>
</g>
<g>
</g>
<g>
</g>
</symbol><symbol id="icon-like" viewBox="0 0 512 512">
<g>
	<g>
		<path d="M53.333,224C23.936,224,0,247.936,0,277.333V448c0,29.397,23.936,53.333,53.333,53.333h64
			c12.011,0,23.061-4.053,32-10.795V224H53.333z"/>
	</g>
</g>
<g>
	<g>
		<path d="M512,304c0-12.821-5.077-24.768-13.888-33.579c9.963-10.901,15.04-25.515,13.653-40.725
			c-2.496-27.115-26.923-48.363-55.637-48.363H324.352c6.528-19.819,16.981-56.149,16.981-85.333c0-46.272-39.317-85.333-64-85.333
			c-22.165,0-37.995,12.48-38.677,12.992c-2.517,2.027-3.989,5.099-3.989,8.341v72.341l-61.44,133.099l-2.56,1.301v228.651
			C188.032,475.584,210.005,480,224,480h195.819c23.232,0,43.563-15.659,48.341-37.269c2.453-11.115,1.024-22.315-3.861-32.043
			c15.765-7.936,26.368-24.171,26.368-42.688c0-7.552-1.728-14.784-5.013-21.333C501.419,338.731,512,322.496,512,304z"/>
	</g>
</g>
<g>
</g>
<g>
</g>
<g>
</g>
<g>
</g>
<g>
</g>
<g>
</g>
<g>
</g>
<g>
</g>
<g>
</g>
<g>
</g>
<g>
</g>
<g>
</g>
<g>
</g>
<g>
</g>
<g>
</g>
</symbol><symbol id="icon-play" viewBox="0 0 320.001 320.001">
<path d="M295.84,146.049l-256-144c-4.96-2.784-11.008-2.72-15.904,0.128C19.008,5.057,16,10.305,16,16.001v288
	c0,5.696,3.008,10.944,7.936,13.824c2.496,1.44,5.28,2.176,8.064,2.176c2.688,0,5.408-0.672,7.84-2.048l256-144
	c5.024-2.848,8.16-8.16,8.16-13.952S300.864,148.897,295.84,146.049z"/>
<g>
</g>
<g>
</g>
<g>
</g>
<g>
</g>
<g>
</g>
<g>
</g>
<g>
</g>
<g>
</g>
<g>
</g>
<g>
</g>
<g>
</g>
<g>
</g>
<g>
</g>
<g>
</g>
<g>
</g>
</symbol><symbol id="sprite"><symbol id="icon-caret" viewBox="0 0 451.847 451.847">
<g>
	<path d="M225.923,354.706c-8.098,0-16.195-3.092-22.369-9.263L9.27,151.157c-12.359-12.359-12.359-32.397,0-44.751
		c12.354-12.354,32.388-12.354,44.748,0l171.905,171.915l171.906-171.909c12.359-12.354,32.391-12.354,44.744,0
		c12.365,12.354,12.365,32.392,0,44.751L248.292,345.449C242.115,351.621,234.018,354.706,225.923,354.706z"/>
</g>
<g>
</g>
<g>
</g>
<g>
</g>
<g>
</g>
<g>
</g>
<g>
</g>
<g>
</g>
<g>
</g>
<g>
</g>
<g>
</g>
<g>
</g>
<g>
</g>
<g>
</g>
<g>
</g>
<g>
</g>
</symbol><symbol id="icon-chat" viewBox="0 0 442.76 442.76">
<g>
	<path d="M237.08,31.616c-113.594,0-205.679,84.96-205.679,189.764c0,28.473,6.809,55.473,18.986,79.711L1.735,389.063
		c-2.704,4.887-2.215,10.916,1.239,15.307c2.672,3.396,6.722,5.299,10.911,5.299c1.223,0,2.457-0.162,3.674-0.498l106.505-29.232
		c32.434,19.719,71.269,31.205,113.016,31.205c113.595,0,205.681-84.959,205.681-189.764
		C442.76,116.576,350.674,31.616,237.08,31.616z M217.881,145.28c0-10.201,8.298-18.5,18.5-18.5s18.5,8.299,18.5,18.5v101
		c0,10.201-8.299,18.5-18.5,18.5s-18.5-8.299-18.5-18.5V145.28z M236.38,315.98c-11.225,0-20.356-9.132-20.356-20.356
		c0-11.227,9.133-20.359,20.356-20.359c11.227,0,20.357,9.133,20.357,20.359C256.738,306.849,247.607,315.98,236.38,315.98z"/>
</g>
<g>
</g>
<g>
</g>
<g>
</g>
<g>
</g>
<g>
</g>
<g>
</g>
<g>
</g>
<g>
</g>
<g>
</g>
<g>
</g>
<g>
</g>
<g>
</g>
<g>
</g>
<g>
</g>
<g>
</g>
</symbol><symbol id="icon-close" viewBox="0 0 365.696 365.696"><path d="m243.1875 182.859375 113.132812-113.132813c12.5-12.5 12.5-32.765624 0-45.246093l-15.082031-15.082031c-12.503906-12.503907-32.769531-12.503907-45.25 0l-113.128906 113.128906-113.132813-113.152344c-12.5-12.5-32.765624-12.5-45.246093 0l-15.105469 15.082031c-12.5 12.503907-12.5 32.769531 0 45.25l113.152344 113.152344-113.128906 113.128906c-12.503907 12.503907-12.503907 32.769531 0 45.25l15.082031 15.082031c12.5 12.5 32.765625 12.5 45.246093 0l113.132813-113.132812 113.128906 113.132812c12.503907 12.5 32.769531 12.5 45.25 0l15.082031-15.082031c12.5-12.503906 12.5-32.769531 0-45.25zm0 0"/></symbol><symbol id="icon-dislike" viewBox="0 0 512 512">
<g>
	<g>
		<path d="M117.333,10.667h-64C23.936,10.667,0,34.603,0,64v170.667C0,264.064,23.936,288,53.333,288h96V21.461
			C140.395,14.72,129.344,10.667,117.333,10.667z"/>
	</g>
</g>
<g>
	<g>
		<path d="M512,208c0-18.496-10.581-34.731-26.347-42.667c3.285-6.549,5.013-13.803,5.013-21.333
			c0-18.517-10.603-34.752-26.368-42.688c4.885-9.728,6.315-20.928,3.861-32.043C463.381,47.659,443.051,32,419.819,32H224
			c-13.995,0-35.968,4.416-53.333,12.608v228.651l2.56,1.301l61.44,133.12V480c0,3.243,1.472,6.315,3.989,8.341
			c0.683,0.512,16.512,12.992,38.677,12.992c24.683,0,64-39.061,64-85.333c0-29.184-10.453-65.515-16.981-85.333h131.776
			c28.715,0,53.141-21.248,55.637-48.363c1.387-15.211-3.691-29.824-13.653-40.725C506.923,232.768,512,220.821,512,208z"/>
	</g>
</g>
<g>
</g>
<g>
</g>
<g>
</g>
<g>
</g>
<g>
</g>
<g>
</g>
<g>
</g>
<g>
</g>
<g>
</g>
<g>
</g>
<g>
</g>
<g>
</g>
<g>
</g>
<g>
</g>
<g>
</g>
</symbol><symbol id="icon-heart" viewBox="0 0 512 512">
<g>
	<g>
		<path d="M376,30c-27.783,0-53.255,8.804-75.707,26.168c-21.525,16.647-35.856,37.85-44.293,53.268
			c-8.437-15.419-22.768-36.621-44.293-53.268C189.255,38.804,163.783,30,136,30C58.468,30,0,93.417,0,177.514
			c0,90.854,72.943,153.015,183.369,247.118c18.752,15.981,40.007,34.095,62.099,53.414C248.38,480.596,252.12,482,256,482
			s7.62-1.404,10.532-3.953c22.094-19.322,43.348-37.435,62.111-53.425C439.057,330.529,512,268.368,512,177.514
			C512,93.417,453.532,30,376,30z"/>
	</g>
</g>
<g>
</g>
<g>
</g>
<g>
</g>
<g>
</g>
<g>
</g>
<g>
</g>
<g>
</g>
<g>
</g>
<g>
</g>
<g>
</g>
<g>
</g>
<g>
</g>
<g>
</g>
<g>
</g>
<g>
</g>
</symbol><symbol id="icon-like" viewBox="0 0 512 512">
<g>
	<g>
		<path d="M53.333,224C23.936,224,0,247.936,0,277.333V448c0,29.397,23.936,53.333,53.333,53.333h64
			c12.011,0,23.061-4.053,32-10.795V224H53.333z"/>
	</g>
</g>
<g>
	<g>
		<path d="M512,304c0-12.821-5.077-24.768-13.888-33.579c9.963-10.901,15.04-25.515,13.653-40.725
			c-2.496-27.115-26.923-48.363-55.637-48.363H324.352c6.528-19.819,16.981-56.149,16.981-85.333c0-46.272-39.317-85.333-64-85.333
			c-22.165,0-37.995,12.48-38.677,12.992c-2.517,2.027-3.989,5.099-3.989,8.341v72.341l-61.44,133.099l-2.56,1.301v228.651
			C188.032,475.584,210.005,480,224,480h195.819c23.232,0,43.563-15.659,48.341-37.269c2.453-11.115,1.024-22.315-3.861-32.043
			c15.765-7.936,26.368-24.171,26.368-42.688c0-7.552-1.728-14.784-5.013-21.333C501.419,338.731,512,322.496,512,304z"/>
	</g>
</g>
<g>
</g>
<g>
</g>
<g>
</g>
<g>
</g>
<g>
</g>
<g>
</g>
<g>
</g>
<g>
</g>
<g>
</g>
<g>
</g>
<g>
</g>
<g>
</g>
<g>
</g>
<g>
</g>
<g>
</g>
</symbol><symbol id="icon-play" viewBox="0 0 320.001 320.001">
<path d="M295.84,146.049l-256-144c-4.96-2.784-11.008-2.72-15.904,0.128C19.008,5.057,16,10.305,16,16.001v288
	c0,5.696,3.008,10.944,7.936,13.824c2.496,1.44,5.28,2.176,8.064,2.176c2.688,0,5.408-0.672,7.84-2.048l256-144
	c5.024-2.848,8.16-8.16,8.16-13.952S300.864,148.897,295.84,146.049z"/>
<g>
</g>
<g>
</g>
<g>
</g>
<g>
</g>
<g>
</g>
<g>
</g>
<g>
</g>
<g>
</g>
<g>
</g>
<g>
</g>
<g>
</g>
<g>
</g>
<g>
</g>
<g>
</g>
<g>
</g>
</symbol><symbol id="sprite"><symbol id="icon-caret" viewBox="0 0 451.847 451.847">
<g>
	<path d="M225.923,354.706c-8.098,0-16.195-3.092-22.369-9.263L9.27,151.157c-12.359-12.359-12.359-32.397,0-44.751
		c12.354-12.354,32.388-12.354,44.748,0l171.905,171.915l171.906-171.909c12.359-12.354,32.391-12.354,44.744,0
		c12.365,12.354,12.365,32.392,0,44.751L248.292,345.449C242.115,351.621,234.018,354.706,225.923,354.706z"/>
</g>
<g>
</g>
<g>
</g>
<g>
</g>
<g>
</g>
<g>
</g>
<g>
</g>
<g>
</g>
<g>
</g>
<g>
</g>
<g>
</g>
<g>
</g>
<g>
</g>
<g>
</g>
<g>
</g>
<g>
</g>
</symbol><symbol id="icon-chat" viewBox="0 0 442.76 442.76">
<g>
	<path d="M237.08,31.616c-113.594,0-205.679,84.96-205.679,189.764c0,28.473,6.809,55.473,18.986,79.711L1.735,389.063
		c-2.704,4.887-2.215,10.916,1.239,15.307c2.672,3.396,6.722,5.299,10.911,5.299c1.223,0,2.457-0.162,3.674-0.498l106.505-29.232
		c32.434,19.719,71.269,31.205,113.016,31.205c113.595,0,205.681-84.959,205.681-189.764
		C442.76,116.576,350.674,31.616,237.08,31.616z M217.881,145.28c0-10.201,8.298-18.5,18.5-18.5s18.5,8.299,18.5,18.5v101
		c0,10.201-8.299,18.5-18.5,18.5s-18.5-8.299-18.5-18.5V145.28z M236.38,315.98c-11.225,0-20.356-9.132-20.356-20.356
		c0-11.227,9.133-20.359,20.356-20.359c11.227,0,20.357,9.133,20.357,20.359C256.738,306.849,247.607,315.98,236.38,315.98z"/>
</g>
<g>
</g>
<g>
</g>
<g>
</g>
<g>
</g>
<g>
</g>
<g>
</g>
<g>
</g>
<g>
</g>
<g>
</g>
<g>
</g>
<g>
</g>
<g>
</g>
<g>
</g>
<g>
</g>
<g>
</g>
</symbol><symbol id="icon-close" viewBox="0 0 365.696 365.696"><path d="m243.1875 182.859375 113.132812-113.132813c12.5-12.5 12.5-32.765624 0-45.246093l-15.082031-15.082031c-12.503906-12.503907-32.769531-12.503907-45.25 0l-113.128906 113.128906-113.132813-113.152344c-12.5-12.5-32.765624-12.5-45.246093 0l-15.105469 15.082031c-12.5 12.503907-12.5 32.769531 0 45.25l113.152344 113.152344-113.128906 113.128906c-12.503907 12.503907-12.503907 32.769531 0 45.25l15.082031 15.082031c12.5 12.5 32.765625 12.5 45.246093 0l113.132813-113.132812 113.128906 113.132812c12.503907 12.5 32.769531 12.5 45.25 0l15.082031-15.082031c12.5-12.503906 12.5-32.769531 0-45.25zm0 0"/></symbol><symbol id="icon-dislike" viewBox="0 0 512 512">
<g>
	<g>
		<path d="M117.333,10.667h-64C23.936,10.667,0,34.603,0,64v170.667C0,264.064,23.936,288,53.333,288h96V21.461
			C140.395,14.72,129.344,10.667,117.333,10.667z"/>
	</g>
</g>
<g>
	<g>
		<path d="M512,208c0-18.496-10.581-34.731-26.347-42.667c3.285-6.549,5.013-13.803,5.013-21.333
			c0-18.517-10.603-34.752-26.368-42.688c4.885-9.728,6.315-20.928,3.861-32.043C463.381,47.659,443.051,32,419.819,32H224
			c-13.995,0-35.968,4.416-53.333,12.608v228.651l2.56,1.301l61.44,133.12V480c0,3.243,1.472,6.315,3.989,8.341
			c0.683,0.512,16.512,12.992,38.677,12.992c24.683,0,64-39.061,64-85.333c0-29.184-10.453-65.515-16.981-85.333h131.776
			c28.715,0,53.141-21.248,55.637-48.363c1.387-15.211-3.691-29.824-13.653-40.725C506.923,232.768,512,220.821,512,208z"/>
	</g>
</g>
<g>
</g>
<g>
</g>
<g>
</g>
<g>
</g>
<g>
</g>
<g>
</g>
<g>
</g>
<g>
</g>
<g>
</g>
<g>
</g>
<g>
</g>
<g>
</g>
<g>
</g>
<g>
</g>
<g>
</g>
</symbol><symbol id="icon-heart" viewBox="0 0 512 512">
<g>
	<g>
		<path d="M376,30c-27.783,0-53.255,8.804-75.707,26.168c-21.525,16.647-35.856,37.85-44.293,53.268
			c-8.437-15.419-22.768-36.621-44.293-53.268C189.255,38.804,163.783,30,136,30C58.468,30,0,93.417,0,177.514
			c0,90.854,72.943,153.015,183.369,247.118c18.752,15.981,40.007,34.095,62.099,53.414C248.38,480.596,252.12,482,256,482
			s7.62-1.404,10.532-3.953c22.094-19.322,43.348-37.435,62.111-53.425C439.057,330.529,512,268.368,512,177.514
			C512,93.417,453.532,30,376,30z"/>
	</g>
</g>
<g>
</g>
<g>
</g>
<g>
</g>
<g>
</g>
<g>
</g>
<g>
</g>
<g>
</g>
<g>
</g>
<g>
</g>
<g>
</g>
<g>
</g>
<g>
</g>
<g>
</g>
<g>
</g>
<g>
</g>
</symbol><symbol id="icon-like" viewBox="0 0 512 512">
<g>
	<g>
		<path d="M53.333,224C23.936,224,0,247.936,0,277.333V448c0,29.397,23.936,53.333,53.333,53.333h64
			c12.011,0,23.061-4.053,32-10.795V224H53.333z"/>
	</g>
</g>
<g>
	<g>
		<path d="M512,304c0-12.821-5.077-24.768-13.888-33.579c9.963-10.901,15.04-25.515,13.653-40.725
			c-2.496-27.115-26.923-48.363-55.637-48.363H324.352c6.528-19.819,16.981-56.149,16.981-85.333c0-46.272-39.317-85.333-64-85.333
			c-22.165,0-37.995,12.48-38.677,12.992c-2.517,2.027-3.989,5.099-3.989,8.341v72.341l-61.44,133.099l-2.56,1.301v228.651
			C188.032,475.584,210.005,480,224,480h195.819c23.232,0,43.563-15.659,48.341-37.269c2.453-11.115,1.024-22.315-3.861-32.043
			c15.765-7.936,26.368-24.171,26.368-42.688c0-7.552-1.728-14.784-5.013-21.333C501.419,338.731,512,322.496,512,304z"/>
	</g>
</g>
<g>
</g>
<g>
</g>
<g>
</g>
<g>
</g>
<g>
</g>
<g>
</g>
<g>
</g>
<g>
</g>
<g>
</g>
<g>
</g>
<g>
</g>
<g>
</g>
<g>
</g>
<g>
</g>
<g>
</g>
</symbol><symbol id="icon-play" viewBox="0 0 320.001 320.001">
<path d="M295.84,146.049l-256-144c-4.96-2.784-11.008-2.72-15.904,0.128C19.008,5.057,16,10.305,16,16.001v288
	c0,5.696,3.008,10.944,7.936,13.824c2.496,1.44,5.28,2.176,8.064,2.176c2.688,0,5.408-0.672,7.84-2.048l256-144
	c5.024-2.848,8.16-8.16,8.16-13.952S300.864,148.897,295.84,146.049z"/>
<g>
</g>
<g>
</g>
<g>
</g>
<g>
</g>
<g>
</g>
<g>
</g>
<g>
</g>
<g>
</g>
<g>
</g>
<g>
</g>
<g>
</g>
<g>
</g>
<g>
</g>
<g>
</g>
<g>
</g>
</symbol><symbol id="sprite"><symbol id="icon-caret" viewBox="0 0 451.847 451.847">
<g>
	<path d="M225.923,354.706c-8.098,0-16.195-3.092-22.369-9.263L9.27,151.157c-12.359-12.359-12.359-32.397,0-44.751
		c12.354-12.354,32.388-12.354,44.748,0l171.905,171.915l171.906-171.909c12.359-12.354,32.391-12.354,44.744,0
		c12.365,12.354,12.365,32.392,0,44.751L248.292,345.449C242.115,351.621,234.018,354.706,225.923,354.706z"/>
</g>
<g>
</g>
<g>
</g>
<g>
</g>
<g>
</g>
<g>
</g>
<g>
</g>
<g>
</g>
<g>
</g>
<g>
</g>
<g>
</g>
<g>
</g>
<g>
</g>
<g>
</g>
<g>
</g>
<g>
</g>
</symbol><symbol id="icon-chat" viewBox="0 0 442.76 442.76">
<g>
	<path d="M237.08,31.616c-113.594,0-205.679,84.96-205.679,189.764c0,28.473,6.809,55.473,18.986,79.711L1.735,389.063
		c-2.704,4.887-2.215,10.916,1.239,15.307c2.672,3.396,6.722,5.299,10.911,5.299c1.223,0,2.457-0.162,3.674-0.498l106.505-29.232
		c32.434,19.719,71.269,31.205,113.016,31.205c113.595,0,205.681-84.959,205.681-189.764
		C442.76,116.576,350.674,31.616,237.08,31.616z M217.881,145.28c0-10.201,8.298-18.5,18.5-18.5s18.5,8.299,18.5,18.5v101
		c0,10.201-8.299,18.5-18.5,18.5s-18.5-8.299-18.5-18.5V145.28z M236.38,315.98c-11.225,0-20.356-9.132-20.356-20.356
		c0-11.227,9.133-20.359,20.356-20.359c11.227,0,20.357,9.133,20.357,20.359C256.738,306.849,247.607,315.98,236.38,315.98z"/>
</g>
<g>
</g>
<g>
</g>
<g>
</g>
<g>
</g>
<g>
</g>
<g>
</g>
<g>
</g>
<g>
</g>
<g>
</g>
<g>
</g>
<g>
</g>
<g>
</g>
<g>
</g>
<g>
</g>
<g>
</g>
</symbol><symbol id="icon-close" viewBox="0 0 365.696 365.696"><path d="m243.1875 182.859375 113.132812-113.132813c12.5-12.5 12.5-32.765624 0-45.246093l-15.082031-15.082031c-12.503906-12.503907-32.769531-12.503907-45.25 0l-113.128906 113.128906-113.132813-113.152344c-12.5-12.5-32.765624-12.5-45.246093 0l-15.105469 15.082031c-12.5 12.503907-12.5 32.769531 0 45.25l113.152344 113.152344-113.128906 113.128906c-12.503907 12.503907-12.503907 32.769531 0 45.25l15.082031 15.082031c12.5 12.5 32.765625 12.5 45.246093 0l113.132813-113.132812 113.128906 113.132812c12.503907 12.5 32.769531 12.5 45.25 0l15.082031-15.082031c12.5-12.503906 12.5-32.769531 0-45.25zm0 0"/></symbol><symbol id="icon-dislike" viewBox="0 0 512 512">
<g>
	<g>
		<path d="M117.333,10.667h-64C23.936,10.667,0,34.603,0,64v170.667C0,264.064,23.936,288,53.333,288h96V21.461
			C140.395,14.72,129.344,10.667,117.333,10.667z"/>
	</g>
</g>
<g>
	<g>
		<path d="M512,208c0-18.496-10.581-34.731-26.347-42.667c3.285-6.549,5.013-13.803,5.013-21.333
			c0-18.517-10.603-34.752-26.368-42.688c4.885-9.728,6.315-20.928,3.861-32.043C463.381,47.659,443.051,32,419.819,32H224
			c-13.995,0-35.968,4.416-53.333,12.608v228.651l2.56,1.301l61.44,133.12V480c0,3.243,1.472,6.315,3.989,8.341
			c0.683,0.512,16.512,12.992,38.677,12.992c24.683,0,64-39.061,64-85.333c0-29.184-10.453-65.515-16.981-85.333h131.776
			c28.715,0,53.141-21.248,55.637-48.363c1.387-15.211-3.691-29.824-13.653-40.725C506.923,232.768,512,220.821,512,208z"/>
	</g>
</g>
<g>
</g>
<g>
</g>
<g>
</g>
<g>
</g>
<g>
</g>
<g>
</g>
<g>
</g>
<g>
</g>
<g>
</g>
<g>
</g>
<g>
</g>
<g>
</g>
<g>
</g>
<g>
</g>
<g>
</g>
</symbol><symbol id="icon-heart" viewBox="0 0 512 512" stroke-width="25">
<g>
	<g>
		<path d="M376,30c-27.783,0-53.255,8.804-75.707,26.168c-21.525,16.647-35.856,37.85-44.293,53.268
			c-8.437-15.419-22.768-36.621-44.293-53.268C189.255,38.804,163.783,30,136,30C58.468,30,0,93.417,0,177.514
			c0,90.854,72.943,153.015,183.369,247.118c18.752,15.981,40.007,34.095,62.099,53.414C248.38,480.596,252.12,482,256,482
			s7.62-1.404,10.532-3.953c22.094-19.322,43.348-37.435,62.111-53.425C439.057,330.529,512,268.368,512,177.514
			C512,93.417,453.532,30,376,30z"/>
	</g>
</g>
<g>
</g>
<g>
</g>
<g>
</g>
<g>
</g>
<g>
</g>
<g>
</g>
<g>
</g>
<g>
</g>
<g>
</g>
<g>
</g>
<g>
</g>
<g>
</g>
<g>
</g>
<g>
</g>
<g>
</g>
</symbol><symbol id="icon-like" viewBox="0 0 512 512">
<g>
	<g>
		<path d="M53.333,224C23.936,224,0,247.936,0,277.333V448c0,29.397,23.936,53.333,53.333,53.333h64
			c12.011,0,23.061-4.053,32-10.795V224H53.333z"/>
	</g>
</g>
<g>
	<g>
		<path d="M512,304c0-12.821-5.077-24.768-13.888-33.579c9.963-10.901,15.04-25.515,13.653-40.725
			c-2.496-27.115-26.923-48.363-55.637-48.363H324.352c6.528-19.819,16.981-56.149,16.981-85.333c0-46.272-39.317-85.333-64-85.333
			c-22.165,0-37.995,12.48-38.677,12.992c-2.517,2.027-3.989,5.099-3.989,8.341v72.341l-61.44,133.099l-2.56,1.301v228.651
			C188.032,475.584,210.005,480,224,480h195.819c23.232,0,43.563-15.659,48.341-37.269c2.453-11.115,1.024-22.315-3.861-32.043
			c15.765-7.936,26.368-24.171,26.368-42.688c0-7.552-1.728-14.784-5.013-21.333C501.419,338.731,512,322.496,512,304z"/>
	</g>
</g>
<g>
</g>
<g>
</g>
<g>
</g>
<g>
</g>
<g>
</g>
<g>
</g>
<g>
</g>
<g>
</g>
<g>
</g>
<g>
</g>
<g>
</g>
<g>
</g>
<g>
</g>
<g>
</g>
<g>
</g>
</symbol><symbol id="icon-play" viewBox="0 0 320.001 320.001">
<path d="M295.84,146.049l-256-144c-4.96-2.784-11.008-2.72-15.904,0.128C19.008,5.057,16,10.305,16,16.001v288
	c0,5.696,3.008,10.944,7.936,13.824c2.496,1.44,5.28,2.176,8.064,2.176c2.688,0,5.408-0.672,7.84-2.048l256-144
	c5.024-2.848,8.16-8.16,8.16-13.952S300.864,148.897,295.84,146.049z"/>
<g>
</g>
<g>
</g>
<g>
</g>
<g>
</g>
<g>
</g>
<g>
</g>
<g>
</g>
<g>
</g>
<g>
</g>
<g>
</g>
<g>
</g>
<g>
</g>
<g>
</g>
<g>
</g>
<g>
</g>
</symbol><symbol id="sprite"><symbol id="icon-caret" viewBox="0 0 451.847 451.847">
<g>
	<path d="M225.923,354.706c-8.098,0-16.195-3.092-22.369-9.263L9.27,151.157c-12.359-12.359-12.359-32.397,0-44.751
		c12.354-12.354,32.388-12.354,44.748,0l171.905,171.915l171.906-171.909c12.359-12.354,32.391-12.354,44.744,0
		c12.365,12.354,12.365,32.392,0,44.751L248.292,345.449C242.115,351.621,234.018,354.706,225.923,354.706z"/>
</g>
<g>
</g>
<g>
</g>
<g>
</g>
<g>
</g>
<g>
</g>
<g>
</g>
<g>
</g>
<g>
</g>
<g>
</g>
<g>
</g>
<g>
</g>
<g>
</g>
<g>
</g>
<g>
</g>
<g>
</g>
</symbol><symbol id="icon-chat" viewBox="0 0 442.76 442.76">
<g>
	<path d="M237.08,31.616c-113.594,0-205.679,84.96-205.679,189.764c0,28.473,6.809,55.473,18.986,79.711L1.735,389.063
		c-2.704,4.887-2.215,10.916,1.239,15.307c2.672,3.396,6.722,5.299,10.911,5.299c1.223,0,2.457-0.162,3.674-0.498l106.505-29.232
		c32.434,19.719,71.269,31.205,113.016,31.205c113.595,0,205.681-84.959,205.681-189.764
		C442.76,116.576,350.674,31.616,237.08,31.616z M217.881,145.28c0-10.201,8.298-18.5,18.5-18.5s18.5,8.299,18.5,18.5v101
		c0,10.201-8.299,18.5-18.5,18.5s-18.5-8.299-18.5-18.5V145.28z M236.38,315.98c-11.225,0-20.356-9.132-20.356-20.356
		c0-11.227,9.133-20.359,20.356-20.359c11.227,0,20.357,9.133,20.357,20.359C256.738,306.849,247.607,315.98,236.38,315.98z"/>
</g>
<g>
</g>
<g>
</g>
<g>
</g>
<g>
</g>
<g>
</g>
<g>
</g>
<g>
</g>
<g>
</g>
<g>
</g>
<g>
</g>
<g>
</g>
<g>
</g>
<g>
</g>
<g>
</g>
<g>
</g>
</symbol><symbol id="icon-close" viewBox="0 0 365.696 365.696"><path d="m243.1875 182.859375 113.132812-113.132813c12.5-12.5 12.5-32.765624 0-45.246093l-15.082031-15.082031c-12.503906-12.503907-32.769531-12.503907-45.25 0l-113.128906 113.128906-113.132813-113.152344c-12.5-12.5-32.765624-12.5-45.246093 0l-15.105469 15.082031c-12.5 12.503907-12.5 32.769531 0 45.25l113.152344 113.152344-113.128906 113.128906c-12.503907 12.503907-12.503907 32.769531 0 45.25l15.082031 15.082031c12.5 12.5 32.765625 12.5 45.246093 0l113.132813-113.132812 113.128906 113.132812c12.503907 12.5 32.769531 12.5 45.25 0l15.082031-15.082031c12.5-12.503906 12.5-32.769531 0-45.25zm0 0"/></symbol><symbol id="icon-dislike" viewBox="0 0 512 512">
<g>
	<g>
		<path d="M117.333,10.667h-64C23.936,10.667,0,34.603,0,64v170.667C0,264.064,23.936,288,53.333,288h96V21.461
			C140.395,14.72,129.344,10.667,117.333,10.667z"/>
	</g>
</g>
<g>
	<g>
		<path d="M512,208c0-18.496-10.581-34.731-26.347-42.667c3.285-6.549,5.013-13.803,5.013-21.333
			c0-18.517-10.603-34.752-26.368-42.688c4.885-9.728,6.315-20.928,3.861-32.043C463.381,47.659,443.051,32,419.819,32H224
			c-13.995,0-35.968,4.416-53.333,12.608v228.651l2.56,1.301l61.44,133.12V480c0,3.243,1.472,6.315,3.989,8.341
			c0.683,0.512,16.512,12.992,38.677,12.992c24.683,0,64-39.061,64-85.333c0-29.184-10.453-65.515-16.981-85.333h131.776
			c28.715,0,53.141-21.248,55.637-48.363c1.387-15.211-3.691-29.824-13.653-40.725C506.923,232.768,512,220.821,512,208z"/>
	</g>
</g>
<g>
</g>
<g>
</g>
<g>
</g>
<g>
</g>
<g>
</g>
<g>
</g>
<g>
</g>
<g>
</g>
<g>
</g>
<g>
</g>
<g>
</g>
<g>
</g>
<g>
</g>
<g>
</g>
<g>
</g>
</symbol><symbol id="icon-heart" viewBox="0 0 512 512">
<g>
	<g>
		<path d="M376,30c-27.783,0-53.255,8.804-75.707,26.168c-21.525,16.647-35.856,37.85-44.293,53.268
			c-8.437-15.419-22.768-36.621-44.293-53.268C189.255,38.804,163.783,30,136,30C58.468,30,0,93.417,0,177.514
			c0,90.854,72.943,153.015,183.369,247.118c18.752,15.981,40.007,34.095,62.099,53.414C248.38,480.596,252.12,482,256,482
			s7.62-1.404,10.532-3.953c22.094-19.322,43.348-37.435,62.111-53.425C439.057,330.529,512,268.368,512,177.514
			C512,93.417,453.532,30,376,30z"/>
	</g>
</g>
<g>
</g>
<g>
</g>
<g>
</g>
<g>
</g>
<g>
</g>
<g>
</g>
<g>
</g>
<g>
</g>
<g>
</g>
<g>
</g>
<g>
</g>
<g>
</g>
<g>
</g>
<g>
</g>
<g>
</g>
</symbol><symbol id="icon-like" viewBox="0 0 512 512">
<g>
	<g>
		<path d="M53.333,224C23.936,224,0,247.936,0,277.333V448c0,29.397,23.936,53.333,53.333,53.333h64
			c12.011,0,23.061-4.053,32-10.795V224H53.333z"/>
	</g>
</g>
<g>
	<g>
		<path d="M512,304c0-12.821-5.077-24.768-13.888-33.579c9.963-10.901,15.04-25.515,13.653-40.725
			c-2.496-27.115-26.923-48.363-55.637-48.363H324.352c6.528-19.819,16.981-56.149,16.981-85.333c0-46.272-39.317-85.333-64-85.333
			c-22.165,0-37.995,12.48-38.677,12.992c-2.517,2.027-3.989,5.099-3.989,8.341v72.341l-61.44,133.099l-2.56,1.301v228.651
			C188.032,475.584,210.005,480,224,480h195.819c23.232,0,43.563-15.659,48.341-37.269c2.453-11.115,1.024-22.315-3.861-32.043
			c15.765-7.936,26.368-24.171,26.368-42.688c0-7.552-1.728-14.784-5.013-21.333C501.419,338.731,512,322.496,512,304z"/>
	</g>
</g>
<g>
</g>
<g>
</g>
<g>
</g>
<g>
</g>
<g>
</g>
<g>
</g>
<g>
</g>
<g>
</g>
<g>
</g>
<g>
</g>
<g>
</g>
<g>
</g>
<g>
</g>
<g>
</g>
<g>
</g>
</symbol><symbol id="icon-play" viewBox="0 0 320.001 320.001">
<path d="M295.84,146.049l-256-144c-4.96-2.784-11.008-2.72-15.904,0.128C19.008,5.057,16,10.305,16,16.001v288
	c0,5.696,3.008,10.944,7.936,13.824c2.496,1.44,5.28,2.176,8.064,2.176c2.688,0,5.408-0.672,7.84-2.048l256-144
	c5.024-2.848,8.16-8.16,8.16-13.952S300.864,148.897,295.84,146.049z"/>
<g>
</g>
<g>
</g>
<g>
</g>
<g>
</g>
<g>
</g>
<g>
</g>
<g>
</g>
<g>
</g>
<g>
</g>
<g>
</g>
<g>
</g>
<g>
</g>
<g>
</g>
<g>
</g>
<g>
</g>
</symbol><symbol id="sprite"><symbol id="icon-caret" viewBox="0 0 451.847 451.847">
<g>
	<path d="M225.923,354.706c-8.098,0-16.195-3.092-22.369-9.263L9.27,151.157c-12.359-12.359-12.359-32.397,0-44.751
		c12.354-12.354,32.388-12.354,44.748,0l171.905,171.915l171.906-171.909c12.359-12.354,32.391-12.354,44.744,0
		c12.365,12.354,12.365,32.392,0,44.751L248.292,345.449C242.115,351.621,234.018,354.706,225.923,354.706z"/>
</g>
<g>
</g>
<g>
</g>
<g>
</g>
<g>
</g>
<g>
</g>
<g>
</g>
<g>
</g>
<g>
</g>
<g>
</g>
<g>
</g>
<g>
</g>
<g>
</g>
<g>
</g>
<g>
</g>
<g>
</g>
</symbol><symbol id="icon-chat" viewBox="0 0 442.76 442.76">
<g>
	<path d="M237.08,31.616c-113.594,0-205.679,84.96-205.679,189.764c0,28.473,6.809,55.473,18.986,79.711L1.735,389.063
		c-2.704,4.887-2.215,10.916,1.239,15.307c2.672,3.396,6.722,5.299,10.911,5.299c1.223,0,2.457-0.162,3.674-0.498l106.505-29.232
		c32.434,19.719,71.269,31.205,113.016,31.205c113.595,0,205.681-84.959,205.681-189.764
		C442.76,116.576,350.674,31.616,237.08,31.616z M217.881,145.28c0-10.201,8.298-18.5,18.5-18.5s18.5,8.299,18.5,18.5v101
		c0,10.201-8.299,18.5-18.5,18.5s-18.5-8.299-18.5-18.5V145.28z M236.38,315.98c-11.225,0-20.356-9.132-20.356-20.356
		c0-11.227,9.133-20.359,20.356-20.359c11.227,0,20.357,9.133,20.357,20.359C256.738,306.849,247.607,315.98,236.38,315.98z"/>
</g>
<g>
</g>
<g>
</g>
<g>
</g>
<g>
</g>
<g>
</g>
<g>
</g>
<g>
</g>
<g>
</g>
<g>
</g>
<g>
</g>
<g>
</g>
<g>
</g>
<g>
</g>
<g>
</g>
<g>
</g>
</symbol><symbol id="icon-close" viewBox="0 0 365.696 365.696"><path d="m243.1875 182.859375 113.132812-113.132813c12.5-12.5 12.5-32.765624 0-45.246093l-15.082031-15.082031c-12.503906-12.503907-32.769531-12.503907-45.25 0l-113.128906 113.128906-113.132813-113.152344c-12.5-12.5-32.765624-12.5-45.246093 0l-15.105469 15.082031c-12.5 12.503907-12.5 32.769531 0 45.25l113.152344 113.152344-113.128906 113.128906c-12.503907 12.503907-12.503907 32.769531 0 45.25l15.082031 15.082031c12.5 12.5 32.765625 12.5 45.246093 0l113.132813-113.132812 113.128906 113.132812c12.503907 12.5 32.769531 12.5 45.25 0l15.082031-15.082031c12.5-12.503906 12.5-32.769531 0-45.25zm0 0"/></symbol><symbol id="icon-dislike" viewBox="0 0 512 512">
<g>
	<g>
		<path d="M117.333,10.667h-64C23.936,10.667,0,34.603,0,64v170.667C0,264.064,23.936,288,53.333,288h96V21.461
			C140.395,14.72,129.344,10.667,117.333,10.667z"/>
	</g>
</g>
<g>
	<g>
		<path d="M512,208c0-18.496-10.581-34.731-26.347-42.667c3.285-6.549,5.013-13.803,5.013-21.333
			c0-18.517-10.603-34.752-26.368-42.688c4.885-9.728,6.315-20.928,3.861-32.043C463.381,47.659,443.051,32,419.819,32H224
			c-13.995,0-35.968,4.416-53.333,12.608v228.651l2.56,1.301l61.44,133.12V480c0,3.243,1.472,6.315,3.989,8.341
			c0.683,0.512,16.512,12.992,38.677,12.992c24.683,0,64-39.061,64-85.333c0-29.184-10.453-65.515-16.981-85.333h131.776
			c28.715,0,53.141-21.248,55.637-48.363c1.387-15.211-3.691-29.824-13.653-40.725C506.923,232.768,512,220.821,512,208z"/>
	</g>
</g>
<g>
</g>
<g>
</g>
<g>
</g>
<g>
</g>
<g>
</g>
<g>
</g>
<g>
</g>
<g>
</g>
<g>
</g>
<g>
</g>
<g>
</g>
<g>
</g>
<g>
</g>
<g>
</g>
<g>
</g>
</symbol><symbol id="icon-heart" viewBox="0 0 512 512">
<g>
	<g>
		<path d="M376,30c-27.783,0-53.255,8.804-75.707,26.168c-21.525,16.647-35.856,37.85-44.293,53.268
			c-8.437-15.419-22.768-36.621-44.293-53.268C189.255,38.804,163.783,30,136,30C58.468,30,0,93.417,0,177.514
			c0,90.854,72.943,153.015,183.369,247.118c18.752,15.981,40.007,34.095,62.099,53.414C248.38,480.596,252.12,482,256,482
			s7.62-1.404,10.532-3.953c22.094-19.322,43.348-37.435,62.111-53.425C439.057,330.529,512,268.368,512,177.514
			C512,93.417,453.532,30,376,30z"/>
	</g>
</g>
<g>
</g>
<g>
</g>
<g>
</g>
<g>
</g>
<g>
</g>
<g>
</g>
<g>
</g>
<g>
</g>
<g>
</g>
<g>
</g>
<g>
</g>
<g>
</g>
<g>
</g>
<g>
</g>
<g>
</g>
</symbol><symbol id="icon-like" viewBox="0 0 512 512">
<g>
	<g>
		<path d="M53.333,224C23.936,224,0,247.936,0,277.333V448c0,29.397,23.936,53.333,53.333,53.333h64
			c12.011,0,23.061-4.053,32-10.795V224H53.333z"/>
	</g>
</g>
<g>
	<g>
		<path d="M512,304c0-12.821-5.077-24.768-13.888-33.579c9.963-10.901,15.04-25.515,13.653-40.725
			c-2.496-27.115-26.923-48.363-55.637-48.363H324.352c6.528-19.819,16.981-56.149,16.981-85.333c0-46.272-39.317-85.333-64-85.333
			c-22.165,0-37.995,12.48-38.677,12.992c-2.517,2.027-3.989,5.099-3.989,8.341v72.341l-61.44,133.099l-2.56,1.301v228.651
			C188.032,475.584,210.005,480,224,480h195.819c23.232,0,43.563-15.659,48.341-37.269c2.453-11.115,1.024-22.315-3.861-32.043
			c15.765-7.936,26.368-24.171,26.368-42.688c0-7.552-1.728-14.784-5.013-21.333C501.419,338.731,512,322.496,512,304z"/>
	</g>
</g>
<g>
</g>
<g>
</g>
<g>
</g>
<g>
</g>
<g>
</g>
<g>
</g>
<g>
</g>
<g>
</g>
<g>
</g>
<g>
</g>
<g>
</g>
<g>
</g>
<g>
</g>
<g>
</g>
<g>
</g>
</symbol><symbol id="icon-play" viewBox="0 0 320.001 320.001">
<path d="M295.84,146.049l-256-144c-4.96-2.784-11.008-2.72-15.904,0.128C19.008,5.057,16,10.305,16,16.001v288
	c0,5.696,3.008,10.944,7.936,13.824c2.496,1.44,5.28,2.176,8.064,2.176c2.688,0,5.408-0.672,7.84-2.048l256-144
	c5.024-2.848,8.16-8.16,8.16-13.952S300.864,148.897,295.84,146.049z"/>
<g>
</g>
<g>
</g>
<g>
</g>
<g>
</g>
<g>
</g>
<g>
</g>
<g>
</g>
<g>
</g>
<g>
</g>
<g>
</g>
<g>
</g>
<g>
</g>
<g>
</g>
<g>
</g>
<g>
</g>
</symbol><symbol id="sprite"><symbol id="icon-caret" viewBox="0 0 451.847 451.847">
<g>
	<path d="M225.923,354.706c-8.098,0-16.195-3.092-22.369-9.263L9.27,151.157c-12.359-12.359-12.359-32.397,0-44.751
		c12.354-12.354,32.388-12.354,44.748,0l171.905,171.915l171.906-171.909c12.359-12.354,32.391-12.354,44.744,0
		c12.365,12.354,12.365,32.392,0,44.751L248.292,345.449C242.115,351.621,234.018,354.706,225.923,354.706z"/>
</g>
<g>
</g>
<g>
</g>
<g>
</g>
<g>
</g>
<g>
</g>
<g>
</g>
<g>
</g>
<g>
</g>
<g>
</g>
<g>
</g>
<g>
</g>
<g>
</g>
<g>
</g>
<g>
</g>
<g>
</g>
</symbol><symbol id="icon-chat" viewBox="0 0 442.76 442.76">
<g>
	<path d="M237.08,31.616c-113.594,0-205.679,84.96-205.679,189.764c0,28.473,6.809,55.473,18.986,79.711L1.735,389.063
		c-2.704,4.887-2.215,10.916,1.239,15.307c2.672,3.396,6.722,5.299,10.911,5.299c1.223,0,2.457-0.162,3.674-0.498l106.505-29.232
		c32.434,19.719,71.269,31.205,113.016,31.205c113.595,0,205.681-84.959,205.681-189.764
		C442.76,116.576,350.674,31.616,237.08,31.616z M217.881,145.28c0-10.201,8.298-18.5,18.5-18.5s18.5,8.299,18.5,18.5v101
		c0,10.201-8.299,18.5-18.5,18.5s-18.5-8.299-18.5-18.5V145.28z M236.38,315.98c-11.225,0-20.356-9.132-20.356-20.356
		c0-11.227,9.133-20.359,20.356-20.359c11.227,0,20.357,9.133,20.357,20.359C256.738,306.849,247.607,315.98,236.38,315.98z"/>
</g>
<g>
</g>
<g>
</g>
<g>
</g>
<g>
</g>
<g>
</g>
<g>
</g>
<g>
</g>
<g>
</g>
<g>
</g>
<g>
</g>
<g>
</g>
<g>
</g>
<g>
</g>
<g>
</g>
<g>
</g>
</symbol><symbol id="icon-close" viewBox="0 0 365.696 365.696"><path d="m243.1875 182.859375 113.132812-113.132813c12.5-12.5 12.5-32.765624 0-45.246093l-15.082031-15.082031c-12.503906-12.503907-32.769531-12.503907-45.25 0l-113.128906 113.128906-113.132813-113.152344c-12.5-12.5-32.765624-12.5-45.246093 0l-15.105469 15.082031c-12.5 12.503907-12.5 32.769531 0 45.25l113.152344 113.152344-113.128906 113.128906c-12.503907 12.503907-12.503907 32.769531 0 45.25l15.082031 15.082031c12.5 12.5 32.765625 12.5 45.246093 0l113.132813-113.132812 113.128906 113.132812c12.503907 12.5 32.769531 12.5 45.25 0l15.082031-15.082031c12.5-12.503906 12.5-32.769531 0-45.25zm0 0"/></symbol><symbol id="icon-dislike" viewBox="0 0 512 512">
<g>
	<g>
		<path d="M117.333,10.667h-64C23.936,10.667,0,34.603,0,64v170.667C0,264.064,23.936,288,53.333,288h96V21.461
			C140.395,14.72,129.344,10.667,117.333,10.667z"/>
	</g>
</g>
<g>
	<g>
		<path d="M512,208c0-18.496-10.581-34.731-26.347-42.667c3.285-6.549,5.013-13.803,5.013-21.333
			c0-18.517-10.603-34.752-26.368-42.688c4.885-9.728,6.315-20.928,3.861-32.043C463.381,47.659,443.051,32,419.819,32H224
			c-13.995,0-35.968,4.416-53.333,12.608v228.651l2.56,1.301l61.44,133.12V480c0,3.243,1.472,6.315,3.989,8.341
			c0.683,0.512,16.512,12.992,38.677,12.992c24.683,0,64-39.061,64-85.333c0-29.184-10.453-65.515-16.981-85.333h131.776
			c28.715,0,53.141-21.248,55.637-48.363c1.387-15.211-3.691-29.824-13.653-40.725C506.923,232.768,512,220.821,512,208z"/>
	</g>
</g>
<g>
</g>
<g>
</g>
<g>
</g>
<g>
</g>
<g>
</g>
<g>
</g>
<g>
</g>
<g>
</g>
<g>
</g>
<g>
</g>
<g>
</g>
<g>
</g>
<g>
</g>
<g>
</g>
<g>
</g>
</symbol><symbol id="icon-heart" viewBox="0 0 512 512" stroke-width="25">
<g>
	<g>
		<path d="M376,30c-27.783,0-53.255,8.804-75.707,26.168c-21.525,16.647-35.856,37.85-44.293,53.268
			c-8.437-15.419-22.768-36.621-44.293-53.268C189.255,38.804,163.783,30,136,30C58.468,30,0,93.417,0,177.514
			c0,90.854,72.943,153.015,183.369,247.118c18.752,15.981,40.007,34.095,62.099,53.414C248.38,480.596,252.12,482,256,482
			s7.62-1.404,10.532-3.953c22.094-19.322,43.348-37.435,62.111-53.425C439.057,330.529,512,268.368,512,177.514
			C512,93.417,453.532,30,376,30z"/>
	</g>
</g>
<g>
</g>
<g>
</g>
<g>
</g>
<g>
</g>
<g>
</g>
<g>
</g>
<g>
</g>
<g>
</g>
<g>
</g>
<g>
</g>
<g>
</g>
<g>
</g>
<g>
</g>
<g>
</g>
<g>
</g>
</symbol><symbol id="icon-like" viewBox="0 0 512 512">
<g>
	<g>
		<path d="M53.333,224C23.936,224,0,247.936,0,277.333V448c0,29.397,23.936,53.333,53.333,53.333h64
			c12.011,0,23.061-4.053,32-10.795V224H53.333z"/>
	</g>
</g>
<g>
	<g>
		<path d="M512,304c0-12.821-5.077-24.768-13.888-33.579c9.963-10.901,15.04-25.515,13.653-40.725
			c-2.496-27.115-26.923-48.363-55.637-48.363H324.352c6.528-19.819,16.981-56.149,16.981-85.333c0-46.272-39.317-85.333-64-85.333
			c-22.165,0-37.995,12.48-38.677,12.992c-2.517,2.027-3.989,5.099-3.989,8.341v72.341l-61.44,133.099l-2.56,1.301v228.651
			C188.032,475.584,210.005,480,224,480h195.819c23.232,0,43.563-15.659,48.341-37.269c2.453-11.115,1.024-22.315-3.861-32.043
			c15.765-7.936,26.368-24.171,26.368-42.688c0-7.552-1.728-14.784-5.013-21.333C501.419,338.731,512,322.496,512,304z"/>
	</g>
</g>
<g>
</g>
<g>
</g>
<g>
</g>
<g>
</g>
<g>
</g>
<g>
</g>
<g>
</g>
<g>
</g>
<g>
</g>
<g>
</g>
<g>
</g>
<g>
</g>
<g>
</g>
<g>
</g>
<g>
</g>
</symbol><symbol id="icon-play" viewBox="0 0 320.001 320.001">
<path d="M295.84,146.049l-256-144c-4.96-2.784-11.008-2.72-15.904,0.128C19.008,5.057,16,10.305,16,16.001v288
	c0,5.696,3.008,10.944,7.936,13.824c2.496,1.44,5.28,2.176,8.064,2.176c2.688,0,5.408-0.672,7.84-2.048l256-144
	c5.024-2.848,8.16-8.16,8.16-13.952S300.864,148.897,295.84,146.049z"/>
<g>
</g>
<g>
</g>
<g>
</g>
<g>
</g>
<g>
</g>
<g>
</g>
<g>
</g>
<g>
</g>
<g>
</g>
<g>
</g>
<g>
</g>
<g>
</g>
<g>
</g>
<g>
</g>
<g>
</g>
</symbol><symbol id="sprite"><symbol id="icon-caret" viewBox="0 0 451.847 451.847">
<g>
	<path d="M225.923,354.706c-8.098,0-16.195-3.092-22.369-9.263L9.27,151.157c-12.359-12.359-12.359-32.397,0-44.751
		c12.354-12.354,32.388-12.354,44.748,0l171.905,171.915l171.906-171.909c12.359-12.354,32.391-12.354,44.744,0
		c12.365,12.354,12.365,32.392,0,44.751L248.292,345.449C242.115,351.621,234.018,354.706,225.923,354.706z"/>
</g>
<g>
</g>
<g>
</g>
<g>
</g>
<g>
</g>
<g>
</g>
<g>
</g>
<g>
</g>
<g>
</g>
<g>
</g>
<g>
</g>
<g>
</g>
<g>
</g>
<g>
</g>
<g>
</g>
<g>
</g>
</symbol><symbol id="icon-chat" viewBox="0 0 442.76 442.76">
<g>
	<path d="M237.08,31.616c-113.594,0-205.679,84.96-205.679,189.764c0,28.473,6.809,55.473,18.986,79.711L1.735,389.063
		c-2.704,4.887-2.215,10.916,1.239,15.307c2.672,3.396,6.722,5.299,10.911,5.299c1.223,0,2.457-0.162,3.674-0.498l106.505-29.232
		c32.434,19.719,71.269,31.205,113.016,31.205c113.595,0,205.681-84.959,205.681-189.764
		C442.76,116.576,350.674,31.616,237.08,31.616z M217.881,145.28c0-10.201,8.298-18.5,18.5-18.5s18.5,8.299,18.5,18.5v101
		c0,10.201-8.299,18.5-18.5,18.5s-18.5-8.299-18.5-18.5V145.28z M236.38,315.98c-11.225,0-20.356-9.132-20.356-20.356
		c0-11.227,9.133-20.359,20.356-20.359c11.227,0,20.357,9.133,20.357,20.359C256.738,306.849,247.607,315.98,236.38,315.98z"/>
</g>
<g>
</g>
<g>
</g>
<g>
</g>
<g>
</g>
<g>
</g>
<g>
</g>
<g>
</g>
<g>
</g>
<g>
</g>
<g>
</g>
<g>
</g>
<g>
</g>
<g>
</g>
<g>
</g>
<g>
</g>
</symbol><symbol id="icon-close" viewBox="0 0 365.696 365.696"><path d="m243.1875 182.859375 113.132812-113.132813c12.5-12.5 12.5-32.765624 0-45.246093l-15.082031-15.082031c-12.503906-12.503907-32.769531-12.503907-45.25 0l-113.128906 113.128906-113.132813-113.152344c-12.5-12.5-32.765624-12.5-45.246093 0l-15.105469 15.082031c-12.5 12.503907-12.5 32.769531 0 45.25l113.152344 113.152344-113.128906 113.128906c-12.503907 12.503907-12.503907 32.769531 0 45.25l15.082031 15.082031c12.5 12.5 32.765625 12.5 45.246093 0l113.132813-113.132812 113.128906 113.132812c12.503907 12.5 32.769531 12.5 45.25 0l15.082031-15.082031c12.5-12.503906 12.5-32.769531 0-45.25zm0 0"/></symbol><symbol id="icon-dislike" viewBox="0 0 512 512">
<g>
	<g>
		<path d="M117.333,10.667h-64C23.936,10.667,0,34.603,0,64v170.667C0,264.064,23.936,288,53.333,288h96V21.461
			C140.395,14.72,129.344,10.667,117.333,10.667z"/>
	</g>
</g>
<g>
	<g>
		<path d="M512,208c0-18.496-10.581-34.731-26.347-42.667c3.285-6.549,5.013-13.803,5.013-21.333
			c0-18.517-10.603-34.752-26.368-42.688c4.885-9.728,6.315-20.928,3.861-32.043C463.381,47.659,443.051,32,419.819,32H224
			c-13.995,0-35.968,4.416-53.333,12.608v228.651l2.56,1.301l61.44,133.12V480c0,3.243,1.472,6.315,3.989,8.341
			c0.683,0.512,16.512,12.992,38.677,12.992c24.683,0,64-39.061,64-85.333c0-29.184-10.453-65.515-16.981-85.333h131.776
			c28.715,0,53.141-21.248,55.637-48.363c1.387-15.211-3.691-29.824-13.653-40.725C506.923,232.768,512,220.821,512,208z"/>
	</g>
</g>
<g>
</g>
<g>
</g>
<g>
</g>
<g>
</g>
<g>
</g>
<g>
</g>
<g>
</g>
<g>
</g>
<g>
</g>
<g>
</g>
<g>
</g>
<g>
</g>
<g>
</g>
<g>
</g>
<g>
</g>
</symbol><symbol id="icon-heart" viewBox="0 0 512 512">
<g>
	<g>
		<path d="M376,30c-27.783,0-53.255,8.804-75.707,26.168c-21.525,16.647-35.856,37.85-44.293,53.268
			c-8.437-15.419-22.768-36.621-44.293-53.268C189.255,38.804,163.783,30,136,30C58.468,30,0,93.417,0,177.514
			c0,90.854,72.943,153.015,183.369,247.118c18.752,15.981,40.007,34.095,62.099,53.414C248.38,480.596,252.12,482,256,482
			s7.62-1.404,10.532-3.953c22.094-19.322,43.348-37.435,62.111-53.425C439.057,330.529,512,268.368,512,177.514
			C512,93.417,453.532,30,376,30z"/>
	</g>
</g>
<g>
</g>
<g>
</g>
<g>
</g>
<g>
</g>
<g>
</g>
<g>
</g>
<g>
</g>
<g>
</g>
<g>
</g>
<g>
</g>
<g>
</g>
<g>
</g>
<g>
</g>
<g>
</g>
<g>
</g>
</symbol><symbol id="icon-like" viewBox="0 0 512 512">
<g>
	<g>
		<path d="M53.333,224C23.936,224,0,247.936,0,277.333V448c0,29.397,23.936,53.333,53.333,53.333h64
			c12.011,0,23.061-4.053,32-10.795V224H53.333z"/>
	</g>
</g>
<g>
	<g>
		<path d="M512,304c0-12.821-5.077-24.768-13.888-33.579c9.963-10.901,15.04-25.515,13.653-40.725
			c-2.496-27.115-26.923-48.363-55.637-48.363H324.352c6.528-19.819,16.981-56.149,16.981-85.333c0-46.272-39.317-85.333-64-85.333
			c-22.165,0-37.995,12.48-38.677,12.992c-2.517,2.027-3.989,5.099-3.989,8.341v72.341l-61.44,133.099l-2.56,1.301v228.651
			C188.032,475.584,210.005,480,224,480h195.819c23.232,0,43.563-15.659,48.341-37.269c2.453-11.115,1.024-22.315-3.861-32.043
			c15.765-7.936,26.368-24.171,26.368-42.688c0-7.552-1.728-14.784-5.013-21.333C501.419,338.731,512,322.496,512,304z"/>
	</g>
</g>
<g>
</g>
<g>
</g>
<g>
</g>
<g>
</g>
<g>
</g>
<g>
</g>
<g>
</g>
<g>
</g>
<g>
</g>
<g>
</g>
<g>
</g>
<g>
</g>
<g>
</g>
<g>
</g>
<g>
</g>
</symbol><symbol id="icon-play" viewBox="0 0 320.001 320.001">
<path d="M295.84,146.049l-256-144c-4.96-2.784-11.008-2.72-15.904,0.128C19.008,5.057,16,10.305,16,16.001v288
	c0,5.696,3.008,10.944,7.936,13.824c2.496,1.44,5.28,2.176,8.064,2.176c2.688,0,5.408-0.672,7.84-2.048l256-144
	c5.024-2.848,8.16-8.16,8.16-13.952S300.864,148.897,295.84,146.049z"/>
<g>
</g>
<g>
</g>
<g>
</g>
<g>
</g>
<g>
</g>
<g>
</g>
<g>
</g>
<g>
</g>
<g>
</g>
<g>
</g>
<g>
</g>
<g>
</g>
<g>
</g>
<g>
</g>
<g>
</g>
</symbol><symbol id="sprite"><symbol id="icon-caret" viewBox="0 0 451.847 451.847">
<g>
	<path d="M225.923,354.706c-8.098,0-16.195-3.092-22.369-9.263L9.27,151.157c-12.359-12.359-12.359-32.397,0-44.751
		c12.354-12.354,32.388-12.354,44.748,0l171.905,171.915l171.906-171.909c12.359-12.354,32.391-12.354,44.744,0
		c12.365,12.354,12.365,32.392,0,44.751L248.292,345.449C242.115,351.621,234.018,354.706,225.923,354.706z"/>
</g>
<g>
</g>
<g>
</g>
<g>
</g>
<g>
</g>
<g>
</g>
<g>
</g>
<g>
</g>
<g>
</g>
<g>
</g>
<g>
</g>
<g>
</g>
<g>
</g>
<g>
</g>
<g>
</g>
<g>
</g>
</symbol><symbol id="icon-chat" viewBox="0 0 442.76 442.76">
<g>
	<path d="M237.08,31.616c-113.594,0-205.679,84.96-205.679,189.764c0,28.473,6.809,55.473,18.986,79.711L1.735,389.063
		c-2.704,4.887-2.215,10.916,1.239,15.307c2.672,3.396,6.722,5.299,10.911,5.299c1.223,0,2.457-0.162,3.674-0.498l106.505-29.232
		c32.434,19.719,71.269,31.205,113.016,31.205c113.595,0,205.681-84.959,205.681-189.764
		C442.76,116.576,350.674,31.616,237.08,31.616z M217.881,145.28c0-10.201,8.298-18.5,18.5-18.5s18.5,8.299,18.5,18.5v101
		c0,10.201-8.299,18.5-18.5,18.5s-18.5-8.299-18.5-18.5V145.28z M236.38,315.98c-11.225,0-20.356-9.132-20.356-20.356
		c0-11.227,9.133-20.359,20.356-20.359c11.227,0,20.357,9.133,20.357,20.359C256.738,306.849,247.607,315.98,236.38,315.98z"/>
</g>
<g>
</g>
<g>
</g>
<g>
</g>
<g>
</g>
<g>
</g>
<g>
</g>
<g>
</g>
<g>
</g>
<g>
</g>
<g>
</g>
<g>
</g>
<g>
</g>
<g>
</g>
<g>
</g>
<g>
</g>
</symbol><symbol id="icon-dislike" viewBox="0 0 512 512">
<g>
	<g>
		<path d="M117.333,10.667h-64C23.936,10.667,0,34.603,0,64v170.667C0,264.064,23.936,288,53.333,288h96V21.461
			C140.395,14.72,129.344,10.667,117.333,10.667z"/>
	</g>
</g>
<g>
	<g>
		<path d="M512,208c0-18.496-10.581-34.731-26.347-42.667c3.285-6.549,5.013-13.803,5.013-21.333
			c0-18.517-10.603-34.752-26.368-42.688c4.885-9.728,6.315-20.928,3.861-32.043C463.381,47.659,443.051,32,419.819,32H224
			c-13.995,0-35.968,4.416-53.333,12.608v228.651l2.56,1.301l61.44,133.12V480c0,3.243,1.472,6.315,3.989,8.341
			c0.683,0.512,16.512,12.992,38.677,12.992c24.683,0,64-39.061,64-85.333c0-29.184-10.453-65.515-16.981-85.333h131.776
			c28.715,0,53.141-21.248,55.637-48.363c1.387-15.211-3.691-29.824-13.653-40.725C506.923,232.768,512,220.821,512,208z"/>
	</g>
</g>
<g>
</g>
<g>
</g>
<g>
</g>
<g>
</g>
<g>
</g>
<g>
</g>
<g>
</g>
<g>
</g>
<g>
</g>
<g>
</g>
<g>
</g>
<g>
</g>
<g>
</g>
<g>
</g>
<g>
</g>
</symbol><symbol id="icon-heart" viewBox="0 0 512 512">
<g>
	<g>
		<path d="M376,30c-27.783,0-53.255,8.804-75.707,26.168c-21.525,16.647-35.856,37.85-44.293,53.268
			c-8.437-15.419-22.768-36.621-44.293-53.268C189.255,38.804,163.783,30,136,30C58.468,30,0,93.417,0,177.514
			c0,90.854,72.943,153.015,183.369,247.118c18.752,15.981,40.007,34.095,62.099,53.414C248.38,480.596,252.12,482,256,482
			s7.62-1.404,10.532-3.953c22.094-19.322,43.348-37.435,62.111-53.425C439.057,330.529,512,268.368,512,177.514
			C512,93.417,453.532,30,376,30z"/>
	</g>
</g>
<g>
</g>
<g>
</g>
<g>
</g>
<g>
</g>
<g>
</g>
<g>
</g>
<g>
</g>
<g>
</g>
<g>
</g>
<g>
</g>
<g>
</g>
<g>
</g>
<g>
</g>
<g>
</g>
<g>
</g>
</symbol><symbol id="icon-like" viewBox="0 0 512 512">
<g>
	<g>
		<path d="M53.333,224C23.936,224,0,247.936,0,277.333V448c0,29.397,23.936,53.333,53.333,53.333h64
			c12.011,0,23.061-4.053,32-10.795V224H53.333z"/>
	</g>
</g>
<g>
	<g>
		<path d="M512,304c0-12.821-5.077-24.768-13.888-33.579c9.963-10.901,15.04-25.515,13.653-40.725
			c-2.496-27.115-26.923-48.363-55.637-48.363H324.352c6.528-19.819,16.981-56.149,16.981-85.333c0-46.272-39.317-85.333-64-85.333
			c-22.165,0-37.995,12.48-38.677,12.992c-2.517,2.027-3.989,5.099-3.989,8.341v72.341l-61.44,133.099l-2.56,1.301v228.651
			C188.032,475.584,210.005,480,224,480h195.819c23.232,0,43.563-15.659,48.341-37.269c2.453-11.115,1.024-22.315-3.861-32.043
			c15.765-7.936,26.368-24.171,26.368-42.688c0-7.552-1.728-14.784-5.013-21.333C501.419,338.731,512,322.496,512,304z"/>
	</g>
</g>
<g>
</g>
<g>
</g>
<g>
</g>
<g>
</g>
<g>
</g>
<g>
</g>
<g>
</g>
<g>
</g>
<g>
</g>
<g>
</g>
<g>
</g>
<g>
</g>
<g>
</g>
<g>
</g>
<g>
</g>
</symbol><symbol id="icon-play" viewBox="0 0 320.001 320.001">
<path d="M295.84,146.049l-256-144c-4.96-2.784-11.008-2.72-15.904,0.128C19.008,5.057,16,10.305,16,16.001v288
	c0,5.696,3.008,10.944,7.936,13.824c2.496,1.44,5.28,2.176,8.064,2.176c2.688,0,5.408-0.672,7.84-2.048l256-144
	c5.024-2.848,8.16-8.16,8.16-13.952S300.864,148.897,295.84,146.049z"/>
<g>
</g>
<g>
</g>
<g>
</g>
<g>
</g>
<g>
</g>
<g>
</g>
<g>
</g>
<g>
</g>
<g>
</g>
<g>
</g>
<g>
</g>
<g>
</g>
<g>
</g>
<g>
</g>
<g>
</g>
</symbol></symbol></symbol></symbol></symbol></symbol></symbol></symbol></symbol></symbol></symbol></svg>